# AST/ASF file generated using VICON BodyLanguage
# -----------------------------------------------
:version 1.10
:name VICON
:units
  mass 1.0
  length 0.45
  angle deg
:documentation
   .ast/.asf automatically generated from VICON data using
   VICON BodyBuilder and BodyLanguage model FoxedUp or BRILLIANT.MOD
:root
   order TX TY TZ RX RY RZ
   axis XYZ
   position 0 0 0  
   orientation 0 0 0 
:bonedata
  begin
     id 1 
     name lhipjoint
     direction 0.570549 -0.739093 0.358072 
     length 2.41801 
     axis 0 0 0  XYZ
  end
  begin
     id 2 
     name lfemur
     direction 0.34202 -0.939693 0  
     length 7.44434  
     axis 0 0 20  XYZ
    dof rx ry rz
    limits (-160.0 20.0)
           (-70.0 70.0)
           (-60.0 70.0)
  end
  begin
     id 3 
     name ltibia
     direction 0.34202 -0.939693 0   
     length 7.60047   
     axis 0 0 20   XYZ
    dof rx
    limits (-10.0 170.0)
  end
  begin
     id 4 
     name lfoot
     direction 0.0909041 -0.249757 0.964032   
     length 2.03437   
     axis -90 7.62852e-016 20   XYZ
    dof rx rz
    limits (-45.0 90.0)
           (-70.0 20.0)
  end
  begin
     id 5 
     name ltoes
     direction 1.53547e-011 -4.2174e-011 1   
     length 1.02054   
     axis -90 7.62852e-016 20   XYZ
    dof rx
    limits (-90.0 20.0)
  end
  begin
     id 6 
     name rhipjoint
     direction -0.558096 -0.746754 0.361784   
     length 2.3932  
     axis 0 0 0  XYZ 
  end
  begin
     id 7 
     name rfemur
     direction -0.34202 -0.939693 0   
     length 7.3886   
     axis 0 0 -20   XYZ
    dof rx ry rz
    limits (-160.0 20.0)
           (-70.0 70.0)
           (-70.0 60.0)
  end
  begin
     id 8 
     name rtibia
     direction -0.34202 -0.939693 0   
     length 7.4839   
     axis 0 0 -20   XYZ
    dof rx
    limits (-10.0 170.0)
 end
 begin
     id 9 
     name rfoot
     direction -0.114619 -0.314914 0.942174   
     length 2.25127  
     axis -90 -7.62852e-016 -20   XYZ
    dof rx rz
    limits (-45.0 90.0)
           (-20.0 70.0)
  end
  begin
     id 10 
     name rtoes
     direction -1.53518e-011 -4.21881e-011 1   
     length 1.11821   
     axis -90 -7.62852e-016 -20   XYZ
    dof rx
    limits (-90.0 20.0)
  end
  begin
     id 11 
     name lowerback
     direction -0.00902269 0.996426 -0.0839821   
     length 2.25052   
     axis 0 0 0   XYZ
    dof rx ry rz
    limits (-20.0 45.0)
           (-30.0 30.0)
           (-30.0 30.0)
  end
  begin
     id 12 
     name upperback
     direction 0.0370973 0.999169 -0.0168941   
     length 2.24876   
     axis 0 0 0   XYZ
    dof rx ry rz
    limits (-20.0 45.0)
           (-30.0 30.0)
           (-30.0 30.0)
  end
  begin
     id 13 
     name thorax
     direction 0.0402726 0.998931 0.0227027   
     length 2.26408   
     axis 0 0 0   XYZ
    dof rx ry rz
    limits (-20.0 45.0)
           (-30.0 30.0)
           (-30.0 30.0)
  end
  begin
     id 14 
     name lowerneck
     direction -0.0733697 0.98508 0.155675   
     length 1.58204   
     axis 0 0 0   XYZ
    dof rx ry rz
    limits (-20.0 45.0)
           (-30.0 30.0)
           (-30.0 30.0)
  end
  begin
     id 15 
     name upperneck
     direction 0.0426554 0.993501 -0.105526   
     length 1.61222   
     axis 0 0 0   XYZ
    dof rx ry rz
    limits (-20.0 45.0)
           (-30.0 30.0)
           (-30.0 30.0)
  end
  begin
     id 16
     name head
     direction 0.020792 0.998384 -0.0528868  
     length 1.61527  
     axis 0 0 0   XYZ
    dof rx ry rz
    limits (-20.0 45.0)
           (-30.0 30.0)
           (-30.0 30.0)
  end
  begin
     id 17 
     name lclavicle
     direction 0.967109 0.155462 -0.201325  
     length 3.59357  
     axis 0 0 0   XYZ
    dof ry rz
    limits (-20.0 10.0)
           (0.0 20.0)
  end
  begin
     id 18 
     name lhumerus
     direction 1 -4.48968e-011 2.38195e-027   
     length 5.38154   
     axis 180 -30 -90   XYZ
    dof rx ry rz
    limits (-60.0 90.0)
           (-90.0 90.0)
           (-90.0 90.0)
  end
  begin
     id 19
     name lradius
     direction 1 -4.48961e-011 4.85371e-027   
     length 3.33312   
     axis 180 -30 -90   XYZ
    dof rx
    limits (-10.0 170.0)
  end
  begin
     id 20
     name lwrist
     direction 1 -4.48961e-011 4.76515e-027   
     length 1.66656   
     axis -3.27502e-015 90 90   XYZ
    dof ry
    limits (-180.0 0.0)
 end
  begin
     id 21 
     name lhand
     direction 1 -4.48951e-011 9.53074e-027   
     length 0.710789   
     axis -6.08098e-015 90 90   XYZ
    dof rx rz
    limits (-90.0 90.0)
           (-45.0 45.0)
  end
  begin
     id 22 
     name lfingers
     direction 1 -4.48953e-011 1.90613e-026   
     length 0.573057   
     axis -1.21619e-014 90 90   XYZ
    dof rx
    limits (0.0 90.0)
  end
  begin
     id 23
     name lthumb
     direction 0.707107 -6.34973e-011 0.707107   
     length 0.822798   
     axis -90 45 -9.86923e-015   XYZ
    dof rx rz
    limits (-45.0 45.0)
           (-45.0 45.0)
  end
  begin
     id 24 
     name rclavicle
     direction -0.9585 0.265289 -0.104398   
     length 3.42039  
     axis 0 0 0   XYZ 
    dof ry rz
    limits (-10.0 20.0)
           (-20.0 0.0)
  end
  begin
     id 25 
     name rhumerus
     direction -1 -4.48977e-011 2.21478e-027  
     length 5.16954   
     axis 180 30 90   XYZ
    dof rx ry rz
    limits (-90.0 60.0)
           (-90.0 90.0)
           (-90.0 90.0)
  end
  begin
     id 26 
     name rradius
     direction -1 -4.48967e-011 5.63677e-027   
     length 3.38287   
     axis 180 30 90   XYZ
    dof rx
    limits (-10.0 170.0)
  end
  begin
     id 27 
     name rwrist
     direction -1 -4.48967e-011 4.76501e-027   
     length 1.69144   
     axis -3.27502e-015 -90 -90   XYZ
    dof ry
    limits (-180.0 0.0)
  end
  begin
     id 28
     name rhand
     direction -1 -4.48902e-011 9.53292e-027   
     length 0.817967   
     axis -6.08098e-015 -90 -90   XYZ
    dof rx rz
    limits (-90.0 90.0)
           (-45.0 45.0)
  end
  begin
     id 29
     name rfingers
     direction -1 -4.49012e-011 1.90561e-026   
     length 0.659466   
     axis -1.21619e-014 -90 -90   XYZ
    dof rx
    limits (0.0 90.0)
  end
  begin
     id 30
     name rthumb
     direction -0.707107 -6.34944e-011 0.707107   
     length 0.946865   
     axis -90 -45 9.86923e-015   XYZ
    dof rx rz
    limits (-45.0 45.0)
           (-45.0 45.0)
  end
:hierarchy
  begin
    root lhipjoint rhipjoint lowerback
    lhipjoint lfemur
    lfemur ltibia
    ltibia lfoot
    lfoot ltoes
    rhipjoint rfemur
    rfemur rtibia
    rtibia rfoot
    rfoot rtoes
    lowerback upperback
    upperback thorax
    thorax lowerneck lclavicle rclavicle
    lowerneck upperneck
    upperneck head
    lclavicle lhumerus
    lhumerus lradius
    lradius lwrist
    lwrist lhand lthumb
    lhand lfingers
    rclavicle rhumerus
    rhumerus rradius
    rradius rwrist
    rwrist rhand rthumb
    rhand rfingers
  end

#!OML:ASF F:\twosubjects\two\wednesday\Session 1\Justin1.ASF
:FULLY-SPECIFIED
:DEGREES
181
root 15.7022 17.9035 11.9597 1.11717 0.793977 3.80918
lowerback 3.19235 -0.989581 -6.07014
upperback 0.273428 -1.50331 2.12554
thorax -1.29584 -0.715414 5.68086
lowerneck -1.73335 -12.3537 -17.6834
upperneck 10.1672 -17.2058 12.8158
head 6.00639 -8.56383 5.49957
rclavicle 1.26725e-014 -7.95139e-015
rhumerus -17.2779 13.6577 -92.9424
rradius 61.1648
rwrist -17.0662
rhand -15.1431 25.7858
rfingers 7.12502
rthumb 11.0267 -3.90459
lclavicle 1.26725e-014 -7.95139e-015
lhumerus -19.8027 12.6614 69.9517
lradius 31.0321
lwrist -8.39527
lhand -5.13396 39.2044
lfingers 7.12502
lthumb 20.6647 68.1243
rfemur -30.178 -7.73511 17.613
rtibia 40.906
rfoot -12.2145 -13.4618
rtoes 7.56882
lfemur -1.03588 2.45682 -24.5768
ltibia 23.089
lfoot -18.5893 0.925213
ltoes -11.4962
182
root 15.7175 17.8986 12.0999 1.17667 0.984173 4.09165
lowerback 3.23425 -1.12005 -6.28756
upperback 0.366552 -1.68694 2.05827
thorax -1.19238 -0.812786 5.73995
lowerneck -2.09248 -12.5207 -17.4072
upperneck 9.94024 -17.3567 12.7115
head 5.98493 -8.61623 5.38691
rclavicle -2.43014e-014 1.11319e-014
rhumerus -17.3163 13.6263 -92.8262
rradius 61.8973
rwrist -17.1534
rhand -15.4798 26.5813
rfingers 7.12502
rthumb 10.702 -3.1261
lclavicle -2.43014e-014 1.11319e-014
lhumerus -18.8094 11.7792 70.2171
lradius 31.7346
lwrist -7.62083
lhand -5.49792 39.1228
lfingers 7.12502
lthumb 20.3149 68.0803
rfemur -30.1843 -8.06131 17.5532
rtibia 38.0742
rfoot -11.7491 -14.1688
rtoes 7.74758
lfemur -0.208342 2.47471 -24.9443
ltibia 22.3618
lfoot -18.5256 0.973866
ltoes -12.5051
183
root 15.7194 17.9001 12.2423 1.26647 1.00775 3.64967
lowerback 3.44965 -1.17904 -5.83229
upperback 0.200369 -1.76313 2.12399
thorax -1.48591 -0.838162 5.56165
lowerneck -2.64151 -12.7787 -16.9024
upperneck 10.3395 -17.6352 12.2743
head 6.15768 -8.73004 5.09835
rclavicle 2.6339e-014 -1.66979e-014
rhumerus -18.19 13.0736 -93.0944
rradius 62.8883
rwrist -17.0183
rhand -15.3329 27.0682
rfingers 7.12502
rthumb 10.8436 -2.63184
lclavicle 2.6339e-014 -1.66979e-014
lhumerus -18.3848 11.0405 70.2446
lradius 32.7156
lwrist -7.21263
lhand -5.65291 39.1894
lfingers 7.12502
lthumb 20.166 68.1627
rfemur -30.1479 -8.07568 18.421
rtibia 35.1145
rfoot -11.1363 -15.0486
rtoes 5.58616
lfemur 0.486708 2.80667 -24.4275
ltibia 21.6948
lfoot -18.443 0.905919
ltoes -14.2162
184
root 15.7228 17.9012 12.3868 1.44199 1.14387 3.66826
lowerback 3.51979 -1.29253 -5.93632
upperback 0.0850514 -1.92408 2.15402
thorax -1.61797 -0.910172 5.6631
lowerneck 0.348383 -11.868 -17.5895
upperneck 7.10469 -16.8172 14.7603
head 4.82097 -8.39353 6.33349
rclavicle 2.16178e-014 -1.27222e-014
rhumerus -18.933 12.786 -93.1776
rradius 63.8609
rwrist -16.9663
rhand -15.2539 27.0518
rfingers 7.12502
rthumb 10.9198 -2.64427
lclavicle 2.16178e-014 -1.27222e-014
lhumerus -17.8365 11.0194 70.3337
lradius 33.5913
lwrist -7.25168
lhand -5.57349 39.1885
lfingers 7.12502
lthumb 20.2423 68.1538
rfemur -30.131 -7.94059 18.631
rtibia 32.0768
rfoot -10.807 -15.6062
rtoes 5.41224
lfemur 1.01552 3.01144 -24.3956
ltibia 21.2397
lfoot -18.5598 0.860106
ltoes -16.6432
185
root 15.727 17.8952 12.5264 1.70529 1.14482 3.7894
lowerback 3.32476 -1.34985 -6.21005
upperback 0.134911 -1.99823 2.21684
thorax -1.43486 -0.953422 5.88033
lowerneck 5.64054 -10.0349 -19.144
upperneck 0.621687 -14.8168 19.2716
head 2.1858 -7.65022 8.682
rclavicle -6.36111e-015 -3.97569e-015
rhumerus -18.76 12.9131 -92.8237
rradius 64.2631
rwrist -17.1574
rhand -15.8496 27.2256
rfingers 7.12502
rthumb 10.3453 -2.4999
lclavicle -6.36111e-015 -3.97569e-015
lhumerus -16.8436 10.761 70.6303
lradius 34.1821
lwrist -6.96836
lhand -5.57244 39.3199
lfingers 7.12502
lthumb 20.2433 68.285
rfemur -30.2459 -7.74141 18.7228
rtibia 29.0635
rfoot -10.5296 -15.9348
rtoes 6.77785
lfemur 1.4872 2.94976 -24.5409
ltibia 20.7868
lfoot -18.6428 1.0796
ltoes -18.1636
186
root 15.7301 17.8826 12.6729 2.05973 0.972207 3.67387
lowerback 2.83789 -1.36493 -6.17629
upperback 0.244171 -1.98586 2.27271
thorax -1.04924 -0.96484 5.90103
lowerneck -1.33957 -12.6024 -17.5087
upperneck 8.31208 -17.6158 14.1624
head 5.54046 -8.72101 5.89779
rclavicle 1.1281e-014 1.82882e-014
rhumerus -18.2924 12.881 -92.5475
rradius 64.293
rwrist -17.324
rhand -16.3044 27.508
rfingers 7.12502
rthumb 9.90653 -2.23892
lclavicle 1.1281e-014 1.82882e-014
lhumerus -15.7662 9.89009 70.8613
lradius 34.7212
lwrist -6.21114
lhand -5.84875 39.3618
lfingers 7.12502
lthumb 19.9777 68.3549
rfemur -30.4012 -7.75133 19.2829
rtibia 26.1493
rfoot -10.0654 -15.8052
rtoes 6.36462
lfemur 1.97362 2.99296 -24.4465
ltibia 20.2008
lfoot -18.5595 1.21922
ltoes -17.9532
